<svg id="Iconly_Bold_Hide" data-name="Iconly/Bold/Hide" xmlns="http://www.w3.org/2000/svg"
    width="20" height="20" viewBox="0 0 20 20">
    <rect id="Iconly_Bold_Hide-2" width="20" height="20" fill="none" />
    <g id="Group" transform="translate(1.667 2.917)">
        <g id="Union">
            <path id="Vector"
                d="M2.13,10.428A13.187,13.187,0,0,1,.049,7.006a.625.625,0,0,1,0-.484C1.789,2.437,4.887,0,8.326,0h.008a7.374,7.374,0,0,1,3.334.8L8.952,3.544a3.761,3.761,0,0,0-.618-.057A3.266,3.266,0,0,0,5.082,6.769a3.861,3.861,0,0,0,.057.624Z"
                transform="translate(0 0.321)" fill="#9e9e9e" />
            <path id="Exclude"
                d="M.607,14.166a.583.583,0,0,1-.431-.18A.618.618,0,0,1,.1,13.215l.025-.032L12.153,1.048A.216.216,0,0,0,12.194,1l0,0a.208.208,0,0,0,.036-.045L13,.178A.62.62,0,0,1,13.432,0a.6.6,0,0,1,.428.178.608.608,0,0,1,0,.869l-1.48,1.493a12.315,12.315,0,0,1,2.927,4.3.627.627,0,0,1,0,.484c-1.741,4.089-4.838,6.53-8.285,6.53H7.014a7.577,7.577,0,0,1-4.4-1.461L1.037,13.986A.6.6,0,0,1,.607,14.166ZM6.079,8.9l-.887.895a3.244,3.244,0,0,0,5.074-2.707A3.322,3.322,0,0,0,9.705,5.24l-.886.895a2.063,2.063,0,0,1,.228.952A2.036,2.036,0,0,1,7.022,9.129,2.006,2.006,0,0,1,6.079,8.9Z"
                transform="translate(1.31)" fill="#9e9e9e" />
        </g>
    </g>
</svg>
